<?xml version="1.0" standalone="no"?><!DOCTYPE svg PUBLIC "-//W3C//DTD SVG 1.1//EN" "http://www.w3.org/Graphics/SVG/1.1/DTD/svg11.dtd"><svg t="1712917322119" class="icon" viewBox="0 0 1024 1024" version="1.1" xmlns="http://www.w3.org/2000/svg" p-id="5172" xmlns:xlink="http://www.w3.org/1999/xlink" width="200" height="200"><path d="M480 128m32 0l0 0q32 0 32 32l0 576q0 32-32 32l0 0q-32 0-32-32l0-576q0-32 32-32Z" fill="#026BFF" p-id="5173"></path><path d="M534.624 86.624a32 32 0 0 1 0 45.248L308.352 358.144A32 32 0 0 1 263.072 312.896L489.344 86.656a32 32 0 0 1 45.28 0z" fill="#026BFF" p-id="5174"></path><path d="M489.344 86.624a32 32 0 0 0 0 45.248L715.648 358.144a32 32 0 1 0 45.28-45.248L534.624 86.656a32 32 0 0 0-45.28 0z" fill="#026BFF" p-id="5175"></path><path d="M868.576 896H155.424V480c0-17.664-13.312-32-29.696-32-16.416 0-29.728 14.336-29.728 32v480h832V480c0-17.664-13.312-32-29.728-32-16.384 0-29.696 14.336-29.696 32v416z" fill="#026BFF" p-id="5176"></path></svg>